<?xml version="1.0" encoding="utf-8"?>
<!-- Generator: Adobe Illustrator 19.2.1, SVG Export Plug-In . SVG Version: 6.00 Build 0)  -->
<svg version="1.1" id="Layer_1" xmlns="http://www.w3.org/2000/svg" xmlns:xlink="http://www.w3.org/1999/xlink" x="0px" y="0px"
	 viewBox="0 0 596.7 596.7" style="enable-background:new 0 0 596.7 596.7;" xml:space="preserve">
<style type="text/css">
	.st0{opacity:0.8;fill:#282828;stroke:#000000;stroke-miterlimit:10;enable-background:new    ;}
	.st1{fill:#F0ECEC;}
</style>
<rect class="st0" width="596.7" height="595.6"/>
<g>
	<path class="st1" d="M-1.7,451.8c18.3-35.5,50.2-57.1,87.5-72.7c66.2-27.8,150.6-41.4,222.9-40c80.3,1.6,157.5,19,227.8,57.1
		c25.7,13.9,48.4,33.2,61.3,58.5c-0.1,26.7,0.3,144.1,0.3,144.1l-599,0.2C-0.9,599-1.8,479.8-1.7,451.8z"/>
	<path class="st1" d="M448.1,134.9c3.2,60.9-36.6,120.1-106.4,137.8c-11.5,2.9-23.2,4.5-34.8,5c-50.2,1.9-98.7-18.6-126.2-55.6
		c-18.5-24.8-27.9-52.6-28.2-80.3V138c0.3-27.7,9.7-55.4,28.2-80.3c27.6-37,76-57.5,126.2-55.6c11.6,0.5,23.3,2.1,34.8,5
		c60.2,15.1,98.1,63.4,105.3,115.4L448.1,134.9z"/>
</g>
</svg>
